<mxfile host="app.diagrams.net" modified="2023-10-16T11:37:02.979Z" agent="Mozilla/5.0 (Macintosh; Intel Mac OS X 10_15_7) AppleWebKit/537.36 (KHTML, like Gecko) Chrome/114.0.0.0 Safari/537.36" version="22.0.4" etag="rQSNWkQ_PddOMZhcq9ys" type="github">
  <diagram name="Page-1" id="jZTmo18WP8cziC-CIJHS">
    <mxGraphModel>
      <root>
        <mxCell id="0" />
        <mxCell id="1" parent="0" />
      </root>
    </mxGraphModel>
  </diagram>
</mxfile>
